<svg width="343" height="108" viewBox="0 0 343 108" fill="none" xmlns="http://www.w3.org/2000/svg">
<g clip-path="url(#clip0_1051_193)">
<path d="M47.941 0H0V108H47.941C77.2624 108 101.037 83.8206 101.037 54C101.037 24.1794 77.2624 0 47.941 0ZM53.6115 59.767H42.2706V48.233H53.6115V59.767Z" fill="#D3D3D3"/>
<path d="M161.35 2.09668C132.596 2.09668 109.285 25.8043 109.285 55.0481C109.285 84.292 132.596 108 161.35 108C190.104 108 213.415 84.292 213.415 55.0481C213.415 25.8043 190.104 2.09668 161.35 2.09668ZM167.021 60.8151H155.68V49.2811H167.021V60.8151Z" fill="#D3D3D3"/>
<path d="M222.734 2.09668V108H272.954V71.3006H277.336L292.481 108H342.999L321.307 55.0481L342.999 2.09668H292.089L276.82 38.2714H272.696V2.09668H222.734Z" fill="#D3D3D3"/>
</g>
<defs>
<clipPath id="clip0_1051_193">
<rect width="343" height="108" fill="white"/>
</clipPath>
</defs>
</svg>
