<svg width="78" height="24" viewBox="0 0 78 24" fill="none" xmlns="http://www.w3.org/2000/svg">
<g clip-path="url(#clip0_1207_283)">
<path d="M10.902 0H0V24H10.902C17.5699 24 22.9763 18.6268 22.9763 12C22.9763 5.3732 17.5699 0 10.902 0ZM12.1915 13.2816H9.61255V10.7184H12.1915V13.2816Z" fill="black"/>
<path d="M36.6914 0.466797C30.1525 0.466797 24.8516 5.73515 24.8516 12.2338C24.8516 18.7324 30.1525 24.0008 36.6914 24.0008C43.2303 24.0008 48.5313 18.7324 48.5313 12.2338C48.5313 5.73515 43.2303 0.466797 36.6914 0.466797ZM37.9809 13.5153H35.4019V10.9522H37.9809V13.5153Z" fill="black"/>
<path d="M50.6504 0.466797V24.0008H62.0706V15.8454H63.067L66.5111 24.0008H77.9993L73.0664 12.2338L77.9993 0.466797H66.422L62.9498 8.50563H62.012V0.466797H50.6504Z" fill="black"/>
</g>
<defs>
<clipPath id="clip0_1207_283">
<rect width="78" height="24" fill="white"/>
</clipPath>
</defs>
</svg>
