<svg width="1376" height="418" viewBox="0 0 1376 418" fill="none" xmlns="http://www.w3.org/2000/svg">
<path d="M192.324 0H0V417.728H192.324C309.964 417.728 405.32 322.359 405.32 204.732C405.32 87.0922 309.95 0 192.324 0ZM215.069 227.477H169.565V181.987H215.055V227.477H215.069Z" fill="#D3D3D3"/>
<path d="M647.276 0C531.926 0 438.412 93.5134 438.412 208.864C438.412 324.215 531.926 417.728 647.276 417.728C762.627 417.728 856.141 324.215 856.141 208.864C856.141 93.5134 762.627 0 647.276 0ZM670.021 231.609H624.531V186.119H670.021V231.609Z" fill="#D3D3D3"/>
<path d="M893.545 0V417.728H1094.99V272.968H1112.57L1173.33 417.728H1376L1288.96 208.864L1376 0H1171.74L1110.5 142.688H1093.96V0H893.545Z" fill="#D3D3D3"/>
</svg>
