<svg width="1376" height="426" viewBox="0 0 1376 426" fill="none" xmlns="http://www.w3.org/2000/svg">
<g clip-path="url(#clip0_1002_2056)">
<path d="M192.323 0H0V426H192.323C309.951 426 405.326 330.626 405.326 213C405.326 95.3744 309.951 0 192.323 0ZM215.071 235.748H169.575V190.252H215.071V235.748Z" fill="#D3D3D3"/>
<path d="M647.281 8.27148C531.929 8.27148 438.414 101.785 438.414 217.136C438.414 332.486 531.929 426 647.281 426C762.634 426 856.148 332.486 856.148 217.136C856.148 101.785 762.634 8.27148 647.281 8.27148ZM670.029 239.883H624.533V194.388H670.029V239.883Z" fill="#D3D3D3"/>
<path d="M893.537 8.27148V426H1095V281.242H1112.58L1173.34 426H1376L1288.98 217.136L1376 8.27148H1171.76L1110.51 150.961H1093.97V8.27148H893.537Z" fill="#D3D3D3"/>
</g>
<defs>
<clipPath id="clip0_1002_2056">
<rect width="1376" height="426" fill="white"/>
</clipPath>
</defs>
</svg>
